<svg width="32" height="35" viewBox="0 0 32 35" fill="none" xmlns="http://www.w3.org/2000/svg">
<path d="M12.8466 2.14355L-5.48907e-05 2.14355V5.35523H3.21061C3.21061 5.35523 3.21112 5.35422 3.21162 5.35422V8.56691H-5.48907e-05V11.7786H3.21162V24.6253H-5.48907e-05V27.837H3.21162V31.0496C3.21162 31.0496 3.21111 31.0496 3.21061 31.0486H-5.48907e-05L-5.48907e-05 34.2603H12.8466C21.7155 34.2603 28.905 27.0708 28.905 18.2019C28.905 9.33315 21.7155 2.14355 12.8466 2.14355ZM6.4233 11.7786H9.63498V24.6253H6.4233V11.7786ZM12.8466 31.0486H6.4233V27.837H12.8466C18.1679 27.837 22.4817 23.5231 22.4817 18.2019C22.4817 12.8808 18.1679 8.56691 12.8466 8.56691L6.4233 8.56691V5.35523L12.8466 5.35523C19.9419 5.35523 25.6934 11.107 25.6934 18.2019C25.6934 25.2969 19.9419 31.0486 12.8466 31.0486ZM12.8466 24.6253V11.7786C16.3943 11.7786 19.27 14.6543 19.27 18.2019C19.27 21.7495 16.3943 24.6253 12.8466 24.6253Z" fill="#52BE70"/>
<path d="M31.2432 3.54893C31.2432 2.14119 30.102 1 28.6943 1C27.2866 1 26.1454 2.14119 26.1454 3.54893C26.1454 4.95666 27.2866 6.09785 28.6943 6.09785C30.102 6.09785 31.2432 4.95666 31.2432 3.54893Z" stroke="#52BE70" stroke-width="0.07648"/>
<path d="M28.1112 4.64134H27.6018V2.45654H28.7122C29.3728 2.45654 29.7588 2.70763 29.7588 3.13795C29.7588 3.43083 29.5757 3.64013 29.2334 3.74467L29.7866 4.64134H29.2295L28.736 3.82543H28.1112V4.64134ZM28.1112 2.7973V3.48771H28.7122C29.0345 3.48771 29.2255 3.35918 29.2255 3.13795C29.2255 2.91975 29.0345 2.7973 28.7122 2.7973H28.1112Z" fill="#52BE70"/>
</svg>
